{"title":"Under the Tuscan Sun 2003 DVD9rip English Klam","uid":5849865,"size":1891507015,"categoryP":"video","categoryS":"movies","magnet":"?xt=urn:btih:4f666a67d16615ab029b7710b2d5b78b7e6cb6d2&amp;dn=Under+the+Tuscan+Sun+2003+DVD9rip+English+Klam&amp;tr=udp%3A%2F%2Ftracker.openbittorrent.com%3A80&amp;tr=udp%3A%2F%2Fopen.demonii.com%3A1337&amp;tr=udp%3A%2F%2Ftracker.coppersurfer.tk%3A6969&amp;tr=udp%3A%2F%2Fexodus.desync.com%3A6969","seeders":1,"leechers":0,"uploader":"Klambake","files":-1,"time":1285333329,"description":"With: Diane Lane, Sandra Oh en Vincent Riotta\n\nAfter Frances's seemingly happy San Francisco marriage ends abruptly, she goes into a funk. Urged by her friends to move on, she joins a bus tour of Tuscany where, on the spur of the moment, she buys a crumbling villa. She assembles a crew of oddballs and immigrants to repair the house; over the next year, as they work, she welcomes one of her New York friends who's pregnant and at loose ends, and she seeks love, first (tenuously) with her married real estate agent, then with a charming stranger. Although life gets in the way of love, Frances's wishes come true in unexpected ways, and there's always the Tuscan sun. \n\nGeneral:\n\nComplete name                    : Klambake\\Under the Tuscan Sun\\Under.avi\nFormat                           : AVI\nFormat/Info                      : Audio Video Interleave\nFile size                        : 1.76 GiB\nDuration                         : 1h 48mn\nOverall bit rate                 : 2 333 Kbps\n\nVideo:\n\nFormat                           : MPEG-4 Visual\nFormat profile                   : Simple@L3\nFormat settings, BVOP            : No\nFormat settings, QPel            : No\nFormat settings, GMC             : No warppoints\nFormat settings, Matrix          : Default (H.263)\nCodec ID                         : XVID\nCodec ID/Hint                    : XviD\nDuration                         : 1h 48mn\nBit rate                         : 1 874 Kbps\nWidth                            : 720 pixels\nHeight                           : 400 pixels\nDisplay aspect ratio             : 16:9\nFrame rate                       : 25.000 fps\nColor space                      : YUV\nChroma subsampling               : 4:2:0\nBit depth                        : 8 bits\nScan type                        : Progressive\nBits/(Pixel*Frame)               : 0.260\nStream size                      : 1.41 GiB (80%)\nWriting library                  : XviD 1.1.2 (UTC 2006-11-01)\n\nAudio:\n\nFormat                           : AC-3\nFormat/Info                      : Audio Coding 3\nMode extension                   : CM (complete main)\nCodec ID                         : 2000\nDuration                         : 1h 48mn\nBit rate mode                    : Constant\nBit rate                         : 448 Kbps\nChannel(s)                       : 6 channels\nChannel positions                : Front: L C R, Side: L R, LFE\nSampling rate                    : 48.0 KHz\nStream size                      : 346 MiB (19%)\nAlignment                        : Aligned on interleaves\nInterleave, duration             : 32 ms (0.80 video frame)\nInterleave, preload duration     : 288 ms\n","torrent":{"xt":"urn:btih:4f666a67d16615ab029b7710b2d5b78b7e6cb6d2","amp;dn":"Under+the+Tuscan+Sun+2003+DVD9rip+English+Klam","amp;tr":["udp%3A%2F%2Ftracker.openbittorrent.com%3A80","udp%3A%2F%2Fopen.demonii.com%3A1337","udp%3A%2F%2Ftracker.coppersurfer.tk%3A6969","udp%3A%2F%2Fexodus.desync.com%3A6969"],"infoHash":"4f666a67d16615ab029b7710b2d5b78b7e6cb6d2","infoHashBuffer":{"type":"Buffer","data":[79,102,106,103,209,102,21,171,2,155,119,16,178,213,183,139,126,108,182,210]},"announce":[],"urlList":[]}}